<svg width="70" height="70" viewBox="0 0 70 70" fill="none" xmlns="http://www.w3.org/2000/svg">
<path d="M31.2078 34.6753C31.2078 36.5852 32.7655 38.1429 34.6753 38.1429C36.5852 38.1429 38.1429 36.5852 38.1429 34.6753C38.1429 32.7655 36.5852 31.2078 34.6753 31.2078C32.7655 31.2078 31.2078 32.7655 31.2078 34.6753Z" fill="#FF655D"/>
<path d="M31.2078 34.6753C31.2078 36.5852 32.7655 38.1429 34.6753 38.1429C36.5852 38.1429 38.1429 36.5852 38.1429 34.6753C38.1429 32.7655 36.5852 31.2078 34.6753 31.2078C32.7655 31.2078 31.2078 32.7655 31.2078 34.6753Z" fill="url(#paint0_linear)"/>
<path d="M38.1835 40.6216L40.1069 43.5067C43.0868 41.6781 45.0779 38.4273 45.0779 34.6753C45.0779 28.9322 40.4184 24.2727 34.6753 24.2727C28.9322 24.2727 24.2727 28.9322 24.2727 34.6753C24.2727 38.4273 26.2774 41.6781 29.2437 43.5067L31.1671 40.6216C29.1218 39.4161 27.7402 37.2218 27.7402 34.6753C27.7402 30.8421 30.8421 27.7403 34.6753 27.7403C38.5086 27.7403 41.6104 30.8421 41.6104 34.6753C41.6104 37.2218 40.2288 39.4161 38.1835 40.6216Z" fill="#FF655D"/>
<path d="M38.1835 40.6216L40.1069 43.5067C43.0868 41.6781 45.0779 38.4273 45.0779 34.6753C45.0779 28.9322 40.4184 24.2727 34.6753 24.2727C28.9322 24.2727 24.2727 28.9322 24.2727 34.6753C24.2727 38.4273 26.2774 41.6781 29.2437 43.5067L31.1671 40.6216C29.1218 39.4161 27.7402 37.2218 27.7402 34.6753C27.7402 30.8421 30.8421 27.7403 34.6753 27.7403C38.5086 27.7403 41.6104 30.8421 41.6104 34.6753C41.6104 37.2218 40.2288 39.4161 38.1835 40.6216Z" fill="url(#paint1_linear)"/>
<path d="M34.6753 17.3376C25.099 17.3376 17.3377 25.099 17.3377 34.6753C17.3377 40.8248 20.5614 46.2021 25.397 49.2769L27.3204 46.3918C23.4194 43.9401 20.8052 39.6193 20.8052 34.6753C20.8052 27.0224 27.0224 20.8052 34.6753 20.8052C42.3283 20.8052 48.5455 27.0224 48.5455 34.6753C48.5455 39.6193 45.9313 43.9401 42.0303 46.3918L43.9537 49.2769C48.7893 46.2021 52.013 40.8248 52.013 34.6753C52.013 25.099 44.2517 17.3376 34.6753 17.3376Z" fill="#FF655D"/>
<path d="M34.6753 17.3376C25.099 17.3376 17.3377 25.099 17.3377 34.6753C17.3377 40.8248 20.5614 46.2021 25.397 49.2769L27.3204 46.3918C23.4194 43.9401 20.8052 39.6193 20.8052 34.6753C20.8052 27.0224 27.0224 20.8052 34.6753 20.8052C42.3283 20.8052 48.5455 27.0224 48.5455 34.6753C48.5455 39.6193 45.9313 43.9401 42.0303 46.3918L43.9537 49.2769C48.7893 46.2021 52.013 40.8248 52.013 34.6753C52.013 25.099 44.2517 17.3376 34.6753 17.3376Z" fill="url(#paint2_linear)"/>
<path d="M28.1737 52.013H41.177L34.6753 41.1769L28.1737 52.013Z" fill="#FF655D"/>
<path d="M28.1737 52.013H41.177L34.6753 41.1769L28.1737 52.013Z" fill="url(#paint3_linear)"/>
<path d="M34.6753 0C15.5226 0 0 15.5226 0 34.6753C0 53.828 15.5226 69.3506 34.6753 69.3506C53.828 69.3506 69.3506 53.828 69.3506 34.6753C69.3506 15.5226 53.828 0 34.6753 0ZM34.6753 63.9326C18.5161 63.9326 5.41802 50.8346 5.41802 34.6753C5.41802 18.5161 18.5161 5.41802 34.6753 5.41802C50.8346 5.41802 63.9326 18.5161 63.9326 34.6753C63.9326 50.8346 50.8346 63.9326 34.6753 63.9326Z" fill="#FF655D"/>
<path d="M34.6753 0C15.5226 0 0 15.5226 0 34.6753C0 53.828 15.5226 69.3506 34.6753 69.3506C53.828 69.3506 69.3506 53.828 69.3506 34.6753C69.3506 15.5226 53.828 0 34.6753 0ZM34.6753 63.9326C18.5161 63.9326 5.41802 50.8346 5.41802 34.6753C5.41802 18.5161 18.5161 5.41802 34.6753 5.41802C50.8346 5.41802 63.9326 18.5161 63.9326 34.6753C63.9326 50.8346 50.8346 63.9326 34.6753 63.9326Z" fill="url(#paint4_linear)"/>
<defs>
<linearGradient id="paint0_linear" x1="34.6753" y1="31.2078" x2="34.6753" y2="38.1429" gradientUnits="userSpaceOnUse">
<stop stop-color="#FF416C"/>
<stop offset="1" stop-color="#FF655D"/>
</linearGradient>
<linearGradient id="paint1_linear" x1="34.6753" y1="24.2727" x2="34.6753" y2="43.5067" gradientUnits="userSpaceOnUse">
<stop stop-color="#FF416C"/>
<stop offset="1" stop-color="#FF655D"/>
</linearGradient>
<linearGradient id="paint2_linear" x1="34.6753" y1="17.3376" x2="34.6753" y2="49.2769" gradientUnits="userSpaceOnUse">
<stop stop-color="#FF416C"/>
<stop offset="1" stop-color="#FF655D"/>
</linearGradient>
<linearGradient id="paint3_linear" x1="34.6753" y1="41.1769" x2="34.6753" y2="52.013" gradientUnits="userSpaceOnUse">
<stop stop-color="#FF416C"/>
<stop offset="1" stop-color="#FF655D"/>
</linearGradient>
<linearGradient id="paint4_linear" x1="34.6753" y1="0" x2="34.6753" y2="69.3506" gradientUnits="userSpaceOnUse">
<stop stop-color="#FF416C"/>
<stop offset="1" stop-color="#FF655D"/>
</linearGradient>
</defs>
</svg>
